<svg width="104" height="56" viewBox="0 0 104 56" fill="none" xmlns="http://www.w3.org/2000/svg">
<g clip-path="url(#clip0_64_11384)">
<path d="M47.1153 35.3021C47.1153 34.2728 46.9833 33.5436 46.7189 33.1148C46.4543 32.6858 46.0003 32.4715 45.3572 32.4715C45.1568 32.4715 44.9497 32.4823 44.7354 32.5036C44.5207 32.5251 44.3136 32.55 44.1132 32.5787V41.2848H40.9182V30.3914C41.19 30.32 41.5078 30.245 41.8726 30.1662C42.2371 30.0877 42.6231 30.0162 43.0305 29.9519C43.4378 29.8874 43.8559 29.8375 44.2848 29.8018C44.7136 29.766 45.1354 29.7481 45.5501 29.7481C46.3649 29.7481 47.0262 29.8518 47.5336 30.059C48.0412 30.2664 48.4594 30.513 48.788 30.7989C49.2455 30.47 49.7709 30.2128 50.3642 30.0268C50.9575 29.8411 51.5043 29.7481 52.0044 29.7481C52.9053 29.7481 53.645 29.8732 54.2239 30.1234C54.803 30.3736 55.2641 30.7274 55.6072 31.1848C55.9503 31.6424 56.1861 32.1855 56.3147 32.8147C56.4434 33.4436 56.5077 34.144 56.5077 34.916V41.2848H53.3127V35.3021C53.3127 34.2728 53.1803 33.5436 52.9161 33.1148C52.6513 32.6858 52.1978 32.4715 51.5542 32.4715C51.3826 32.4715 51.1434 32.5143 50.8359 32.6001C50.5286 32.6859 50.2748 32.793 50.0747 32.9218C50.1747 33.2506 50.239 33.5973 50.2677 33.9618C50.2962 34.3263 50.3106 34.7159 50.3106 35.1305V41.2848H47.1153V35.3021ZM69.4301 35.6237C69.4301 36.5101 69.3015 37.3212 69.0442 38.0575C68.7866 38.7938 68.4151 39.4227 67.9289 39.9446C67.4429 40.4664 66.8602 40.8702 66.1812 41.1562C65.5022 41.442 64.741 41.585 63.8974 41.585C63.0684 41.585 62.3142 41.442 61.6353 41.1562C60.9563 40.8702 60.3738 40.4664 59.8876 39.9446C59.4016 39.4227 59.0227 38.7938 58.7509 38.0575C58.4795 37.3212 58.3436 36.5101 58.3436 35.6237C58.3436 34.7374 58.483 33.9296 58.7617 33.2006C59.0407 32.4715 59.4267 31.8496 59.9198 31.3349C60.413 30.8204 60.9992 30.4201 61.678 30.1342C62.3573 29.8482 63.0971 29.7053 63.8974 29.7053C64.7125 29.7053 65.4593 29.8482 66.1384 30.1342C66.8174 30.4201 67.3999 30.8204 67.8861 31.3349C68.3722 31.8496 68.751 32.4715 69.0227 33.2006C69.2942 33.9296 69.4301 34.7374 69.4301 35.6237ZM66.1705 35.6237C66.1705 34.6373 65.9741 33.8618 65.5809 33.297C65.1878 32.7324 64.6267 32.45 63.8974 32.45C63.1684 32.45 62.6039 32.7324 62.2035 33.297C61.8033 33.8618 61.6032 34.6373 61.6032 35.6237C61.6032 36.61 61.8033 37.3928 62.2035 37.9717C62.6039 38.5507 63.1684 38.8401 63.8974 38.8401C64.6267 38.8401 65.1878 38.5507 65.5809 37.9717C65.9741 37.3928 66.1705 36.61 66.1705 35.6237ZM81.0013 40.8988C80.4582 41.056 79.7577 41.2026 78.8999 41.3384C78.0421 41.4742 77.1415 41.5421 76.198 41.5421C75.2403 41.5421 74.4433 41.4134 73.8071 41.1562C73.171 40.8988 72.667 40.5378 72.2953 40.0733C71.9237 39.6086 71.6591 39.0547 71.5019 38.4113C71.3447 37.768 71.2661 37.0605 71.2661 36.2884V30.0054H74.4611V35.9025C74.4611 36.9318 74.5968 37.6752 74.8684 38.1326C75.1401 38.5901 75.6477 38.8187 76.391 38.8187C76.6198 38.8187 76.8628 38.8081 77.1201 38.7865C77.3774 38.7652 77.6061 38.7401 77.8062 38.7116V30.0054H81.0013V40.8988ZM90.2781 32.8361C89.9924 32.7645 89.6563 32.6895 89.2704 32.6109C88.8844 32.5323 88.4697 32.4929 88.0265 32.4929C87.8264 32.4929 87.587 32.5108 87.3081 32.5465C87.0295 32.5823 86.8187 32.6217 86.6757 32.6645V41.2848H83.4807V30.6059C84.0525 30.4058 84.7279 30.2164 85.507 30.0377C86.2861 29.8588 87.1547 29.7696 88.1125 29.7696C88.284 29.7696 88.4911 29.7802 88.7344 29.8018C88.9772 29.8232 89.2203 29.8518 89.4634 29.8874C89.7064 29.9232 89.9494 29.9662 90.1924 30.0162C90.4355 30.0662 90.6426 30.127 90.8144 30.1984C90.971 31.1473 90.7897 32.0261 90.2781 32.8361ZM96.1026 39.0547C96.4171 39.0547 96.7174 39.0475 97.0031 39.0331C97.2893 39.0189 97.5179 38.9974 97.6895 38.9689V36.5457C97.5609 36.5172 97.3679 36.4887 97.1103 36.4601C96.8531 36.4315 96.6172 36.417 96.4028 36.417C96.1026 36.417 95.8202 36.435 95.5559 36.4707C95.2912 36.5065 95.059 36.5743 94.859 36.6745C94.6587 36.7744 94.5017 36.9103 94.3871 37.0818C94.2728 37.2534 94.2155 37.4678 94.2155 37.7251C94.2155 38.2255 94.3836 38.5721 94.7194 38.7652C95.0554 38.9582 95.5164 39.0547 96.1026 39.0547ZM95.8454 29.7053C96.7887 29.7053 97.575 29.8124 98.2042 30.0268C98.833 30.2414 99.3371 30.5488 99.7157 30.9489C100.095 31.3494 100.363 31.8353 100.52 32.4071C100.677 32.979 100.756 33.6151 100.756 34.3156V40.9632C100.298 41.0632 99.6622 41.1812 98.8474 41.317C98.0326 41.4528 97.0463 41.5206 95.8882 41.5206C95.1592 41.5206 94.4979 41.4563 93.9046 41.3276C93.3113 41.199 92.8004 40.9882 92.3716 40.6951C91.9424 40.402 91.6138 40.0196 91.385 39.5479C91.1563 39.0761 91.042 38.4971 91.042 37.811C91.042 37.1534 91.1742 36.5959 91.4385 36.1383C91.7032 35.6809 92.057 35.3163 92.5001 35.0447C92.9432 34.7731 93.4507 34.5766 94.0225 34.455C94.5945 34.3335 95.1877 34.2728 95.8025 34.2728C96.2169 34.2728 96.585 34.2906 96.9067 34.3263C97.2283 34.3621 97.4893 34.4086 97.6895 34.4658V34.1656C97.6895 33.6223 97.5251 33.1863 97.1962 32.8575C96.8675 32.5287 96.2956 32.3642 95.4808 32.3642C94.9375 32.3642 94.4015 32.4035 93.8725 32.4823C93.3435 32.5609 92.8861 32.6717 92.5001 32.8147C92.0799 32.1598 91.9284 31.3133 92.0928 30.2414C92.2784 30.1842 92.511 30.1234 92.7897 30.059C93.0685 29.9948 93.3723 29.9376 93.701 29.8874C94.0298 29.8375 94.3763 29.7947 94.7409 29.7589C95.1056 29.723 95.4735 29.7053 95.8454 29.7053Z" fill="#B93136"/>
<path d="M41.5975 25.2254C40.8648 23.7959 40.1214 22.1233 39.3673 20.2077C38.6132 18.292 37.902 16.2047 37.2266 13.946H40.6146C40.7576 14.5036 40.9255 15.1076 41.1221 15.7582C41.315 16.4085 41.5154 17.0661 41.7227 17.7309C41.9335 18.3956 42.1406 19.0426 42.348 19.6715C42.5553 20.3005 42.7627 20.8724 42.9627 21.387C43.1487 20.8724 43.3489 20.3005 43.5667 19.6715C43.7811 19.0426 43.9921 18.3956 44.1993 17.7309C44.4066 17.0661 44.6103 16.4085 44.8032 15.7582C44.9962 15.1076 45.1644 14.5036 45.3073 13.946H48.6131C47.9377 16.2047 47.2263 18.292 46.4723 20.2077C45.7218 22.1233 44.9784 23.7959 44.2458 25.2254H41.5975ZM52.9793 25.2254H49.7843V13.946H52.9793V25.2254ZM53.2795 10.6866C53.2795 11.2728 53.0901 11.7338 52.7113 12.0698C52.3324 12.4058 51.8858 12.5737 51.3712 12.5737C50.8566 12.5737 50.4097 12.4058 50.0309 12.0698C49.6519 11.7338 49.4627 11.2728 49.4627 10.6866C49.4627 10.1005 49.6519 9.63954 50.0309 9.30352C50.4097 8.96757 50.8566 8.79953 51.3712 8.79953C51.8858 8.79953 52.3324 8.96757 52.7113 9.30352C53.0901 9.63954 53.2795 10.1005 53.2795 10.6866ZM59.7689 22.9953C60.0832 22.9953 60.3834 22.9882 60.6696 22.9738C60.9553 22.9596 61.1841 22.9381 61.3556 22.9096V20.4863C61.227 20.4579 61.034 20.4293 60.7768 20.4007C60.5194 20.3721 60.2835 20.3577 60.0691 20.3577C59.7689 20.3577 59.4865 20.3756 59.2219 20.4113C58.9577 20.4471 58.7251 20.5149 58.5251 20.6151C58.3251 20.7151 58.1677 20.8509 58.0534 21.0225C57.9391 21.194 57.8818 21.4085 57.8818 21.6658C57.8818 22.1662 58.0497 22.5128 58.3857 22.7058C58.7218 22.8987 59.1828 22.9953 59.7689 22.9953ZM59.5116 13.6458C60.4551 13.6458 61.2413 13.7531 61.8705 13.9675C62.4994 14.182 63.0032 14.4893 63.3822 14.8896C63.761 15.2899 64.0291 15.7759 64.1861 16.3477C64.3435 16.9197 64.422 17.5558 64.422 18.2563V24.9038C63.9647 25.0038 63.3285 25.1218 62.5136 25.2576C61.6987 25.3934 60.7124 25.4612 59.5542 25.4612C58.8252 25.4612 58.1642 25.397 57.5709 25.2682C56.9777 25.1396 56.4664 24.9288 56.0376 24.6357C55.6089 24.3427 55.2799 23.9602 55.0513 23.4885C54.8226 23.0168 54.7083 22.4378 54.7083 21.7516C54.7083 21.094 54.8403 20.5365 55.1048 20.0789C55.3693 19.6215 55.7231 19.257 56.1663 18.9854C56.6095 18.7137 57.1171 18.5172 57.6889 18.3956C58.2607 18.2742 58.854 18.2134 59.4688 18.2134C59.8832 18.2134 60.2514 18.2312 60.5731 18.267C60.8947 18.3028 61.1557 18.3492 61.3556 18.4063V18.1062C61.3556 17.5628 61.1912 17.1269 60.8625 16.7981C60.5335 16.4694 59.9619 16.3049 59.1469 16.3049C58.6038 16.3049 58.0675 16.3442 57.5388 16.4228C57.0099 16.5015 56.5522 16.6123 56.1663 16.7552C55.65 15.9791 55.5068 15.1229 55.7589 14.182C55.9448 14.1248 56.177 14.064 56.4558 13.9997C56.7345 13.9354 57.0383 13.8782 57.3673 13.8281C57.696 13.7781 58.0427 13.7352 58.4072 13.6995C58.7717 13.6637 59.1399 13.6458 59.5116 13.6458ZM66.7943 14.3321C67.3373 14.1748 68.0378 14.0282 68.8957 13.8925C69.7535 13.7567 70.6539 13.6887 71.5976 13.6887C72.5554 13.6887 73.3524 13.8139 73.9883 14.064C74.6245 14.3142 75.1286 14.668 75.5002 15.1254C75.872 15.5829 76.1365 16.1262 76.2936 16.7552C76.451 17.3842 76.5294 18.0847 76.5294 18.8566V25.2254H73.3344V19.2427C73.3344 18.2134 73.1988 17.4843 72.927 17.0555C72.6553 16.6265 72.148 16.4121 71.4046 16.4121C71.1759 16.4121 70.9327 16.4228 70.6754 16.4443C70.4181 16.4657 70.1893 16.4907 69.9893 16.5194V25.2254H66.7943V14.3321ZM83.2119 22.9953C83.5262 22.9953 83.8263 22.9882 84.1124 22.9738C84.3983 22.9596 84.627 22.9381 84.7986 22.9096V20.4863C84.6699 20.4579 84.477 20.4293 84.2196 20.4007C83.9624 20.3721 83.7265 20.3577 83.512 20.3577C83.2119 20.3577 82.9295 20.3756 82.6648 20.4113C82.4005 20.4471 82.168 20.5149 81.9681 20.6151C81.7679 20.7151 81.6105 20.8509 81.4963 21.0225C81.3818 21.194 81.3248 21.4085 81.3248 21.6658C81.3248 22.1662 81.4926 22.5128 81.8287 22.7058C82.1647 22.8987 82.6257 22.9953 83.2119 22.9953ZM82.9543 13.6458C83.898 13.6458 84.6842 13.7531 85.3131 13.9675C85.9423 14.182 86.4461 14.4893 86.8251 14.8896C87.2039 15.2899 87.472 15.7759 87.629 16.3477C87.7864 16.9197 87.8649 17.5558 87.8649 18.2563V24.9038C87.4077 25.0038 86.7714 25.1218 85.9564 25.2576C85.1416 25.3934 84.1553 25.4612 82.9972 25.4612C82.2682 25.4612 81.6072 25.397 81.0138 25.2682C80.4206 25.1396 79.9093 24.9288 79.4806 24.6357C79.0517 24.3427 78.7228 23.9602 78.4942 23.4885C78.2654 23.0168 78.1512 22.4378 78.1512 21.7516C78.1512 21.094 78.2832 20.5365 78.5478 20.0789C78.8122 19.6215 79.166 19.257 79.6092 18.9854C80.0525 18.7137 80.56 18.5172 81.1318 18.3956C81.7034 18.2742 82.2969 18.2134 82.9115 18.2134C83.3262 18.2134 83.6942 18.2312 84.016 18.267C84.3376 18.3028 84.5985 18.3492 84.7986 18.4063V18.1062C84.7986 17.5628 84.634 17.1269 84.3054 16.7981C83.9765 16.4694 83.4049 16.3049 82.5898 16.3049C82.0467 16.3049 81.5104 16.3442 80.9814 16.4228C80.4528 16.5015 79.9951 16.6123 79.6092 16.7552C79.0942 16.1414 78.9486 15.2898 79.2018 14.182C79.3877 14.1248 79.6199 14.064 79.8987 13.9997C80.1774 13.9354 80.4813 13.8782 80.8102 13.8281C81.1389 13.7781 81.4856 13.7352 81.8502 13.6995C82.2146 13.6637 82.5827 13.6458 82.9543 13.6458Z" fill="#B93136"/>
<path fill-rule="evenodd" clip-rule="evenodd" d="M2.19946 25.0188V21.013L7.11192 16.733V20.7772L2.19946 25.0188Z" fill="#B93136"/>
<path fill-rule="evenodd" clip-rule="evenodd" d="M2.18994 53.3113V49.3055L7.10246 45.0255V49.0697L2.18994 53.3113Z" fill="#B93136"/>
<path fill-rule="evenodd" clip-rule="evenodd" d="M-0.470947 34.2373V30.0839L7.12831 23.6839V27.8757L-0.470947 34.2373Z" fill="#B93136"/>
<path fill-rule="evenodd" clip-rule="evenodd" d="M-0.49707 41.4467V37.2932L7.10196 30.8933V35.0851L-0.49707 41.4467Z" fill="#B93136"/>
<path fill-rule="evenodd" clip-rule="evenodd" d="M-0.49707 48.609V44.4555L7.10196 38.0556V42.2475L-0.49707 48.609Z" fill="#B93136"/>
<path fill-rule="evenodd" clip-rule="evenodd" d="M13.01 25.0188V21.013L8.09741 16.733V20.7772L13.01 25.0188Z" fill="#E4A123"/>
<path fill-rule="evenodd" clip-rule="evenodd" d="M13.0191 53.3113V49.3055L8.10645 45.0255V49.0697L13.0191 53.3113Z" fill="#E4A123"/>
<path fill-rule="evenodd" clip-rule="evenodd" d="M15.6797 34.2373V30.0839L8.08032 23.6839V27.8757L15.6797 34.2373Z" fill="#E4A123"/>
<path fill-rule="evenodd" clip-rule="evenodd" d="M15.7057 41.4467V37.2932L8.10645 30.8933V35.0851L15.7057 41.4467Z" fill="#E4A123"/>
<path fill-rule="evenodd" clip-rule="evenodd" d="M15.7057 48.609V44.4555L8.10645 38.0556V42.2475L15.7057 48.609Z" fill="#E4A123"/>
<path fill-rule="evenodd" clip-rule="evenodd" d="M7.69519 8.89318C8.05734 8.89318 8.35367 9.1894 8.35367 9.55143V14.4252C8.35367 14.7873 8.05734 15.0835 7.69519 15.0835C7.33333 15.0835 7.03711 14.7873 7.03711 14.4252V9.55143C7.03711 9.1894 7.33333 8.89318 7.69519 8.89318Z" fill="#B93136"/>
<path fill-rule="evenodd" clip-rule="evenodd" d="M24.709 1.66063C25.0711 1.66063 25.3673 1.95685 25.3673 2.31889V7.19268C25.3673 7.55477 25.0711 7.85099 24.709 7.85099C24.3469 7.85099 24.0508 7.55477 24.0508 7.19268V2.31889C24.0508 1.95685 24.3469 1.66063 24.709 1.66063Z" fill="#B93136"/>
<path fill-rule="evenodd" clip-rule="evenodd" d="M19.2969 17.7864V13.7804L24.2094 9.5004V13.5447L19.2969 17.7864Z" fill="#B93136"/>
<path fill-rule="evenodd" clip-rule="evenodd" d="M19.2876 46.0788V42.0729L24.2004 37.7929V41.8372L19.2876 46.0788Z" fill="#B93136"/>
<path fill-rule="evenodd" clip-rule="evenodd" d="M16.627 27.0047V22.8513L24.226 16.4514V20.6431L16.627 27.0047Z" fill="#B93136"/>
<path fill-rule="evenodd" clip-rule="evenodd" d="M16.6006 34.2141V30.0607L24.1999 23.6608V27.8526L16.6006 34.2141Z" fill="#B93136"/>
<path fill-rule="evenodd" clip-rule="evenodd" d="M16.6006 41.3765V37.223L24.1999 30.8231V35.0148L16.6006 41.3765Z" fill="#B93136"/>
<path fill-rule="evenodd" clip-rule="evenodd" d="M30.1069 17.7864V13.7804L25.1943 9.5004V13.5447L30.1069 17.7864Z" fill="#E4A123"/>
<path fill-rule="evenodd" clip-rule="evenodd" d="M30.1166 46.0788V42.0729L25.2041 37.7929V41.8372L30.1166 46.0788Z" fill="#E4A123"/>
<path fill-rule="evenodd" clip-rule="evenodd" d="M32.7773 27.0047V22.8513L25.1782 16.4514V20.6431L32.7773 27.0047Z" fill="#E4A123"/>
<path fill-rule="evenodd" clip-rule="evenodd" d="M32.8032 34.2141V30.0607L25.2041 23.6608V27.8526L32.8032 34.2141Z" fill="#E4A123"/>
<path fill-rule="evenodd" clip-rule="evenodd" d="M32.8032 41.3765V37.223L25.2041 30.8231V35.0148L32.8032 41.3765Z" fill="#E4A123"/>
<path fill-rule="evenodd" clip-rule="evenodd" d="M96.4301 21.0432L103.695 17.9886C103.12 12.3227 95.1106 11.7211 93.3722 17.4034C91.3558 23.9942 99.5394 28.6224 103.721 22.4425C103.146 21.6496 102.425 21.1548 101.48 21.1132C101.086 22.4872 97.6308 23.4358 96.4301 21.0432ZM96.3109 18.842C96.0526 16.4087 99.2261 15.5964 100.37 17.1479L96.3109 18.842Z" fill="#B93136"/>
<path fill-rule="evenodd" clip-rule="evenodd" d="M81.4016 54.1653H83.9847V55.4774H81.4016V54.1653Z" fill="#E4A123"/>
<path fill-rule="evenodd" clip-rule="evenodd" d="M87.0505 45.2146H89.6336V46.525H87.0505V45.2146Z" fill="#E4A123"/>
<path d="M37.531 50.2989C37.531 49.855 37.6028 49.4365 37.7468 49.0434C37.8909 48.6502 38.0992 48.3076 38.3718 48.0157C38.6443 47.7238 38.975 47.492 39.3646 47.3208C39.7538 47.1495 40.1975 47.0638 40.6957 47.0638C41.0229 47.0638 41.3226 47.093 41.5952 47.1516C41.8674 47.2099 42.1322 47.2936 42.3893 47.4026L42.0272 48.7923C41.8637 48.73 41.6847 48.6755 41.4899 48.6289C41.2952 48.5821 41.0774 48.5587 40.836 48.5587C40.3222 48.5587 39.9387 48.7184 39.6856 49.0376C39.4327 49.3568 39.306 49.7772 39.306 50.2989C39.306 50.8516 39.4248 51.2799 39.6624 51.5834C39.8997 51.8871 40.3143 52.0389 40.906 52.0389C41.1162 52.0389 41.3421 52.0196 41.5833 51.9806C41.8246 51.9416 42.0467 51.8794 42.2491 51.7937L42.4944 53.2185C42.292 53.3041 42.0389 53.378 41.7351 53.4404C41.4316 53.5027 41.0969 53.5338 40.7308 53.5338C40.1703 53.5338 39.6876 53.4501 39.2826 53.2827C38.8779 53.1153 38.5451 52.8876 38.2843 52.5995C38.0233 52.3115 37.8326 51.9708 37.7119 51.5776C37.5912 51.1844 37.531 50.7582 37.531 50.2989ZM49.1159 50.2871C49.1159 50.7698 49.046 51.2116 48.9058 51.6126C48.7658 52.0136 48.5632 52.3562 48.2985 52.6404C48.0338 52.9246 47.7166 53.1445 47.3467 53.3002C46.977 53.456 46.5623 53.5338 46.1029 53.5338C45.6515 53.5338 45.2408 53.456 44.8709 53.3002C44.5011 53.1445 44.1839 52.9246 43.9191 52.6404C43.6544 52.3562 43.4479 52.0136 43.3002 51.6126C43.1523 51.2116 43.0783 50.7698 43.0783 50.2871C43.0783 49.8045 43.1543 49.3646 43.3059 48.9675C43.4577 48.5704 43.668 48.2317 43.9367 47.9515C44.2054 47.6712 44.5246 47.4532 44.8942 47.2974C45.2642 47.1417 45.6669 47.0638 46.1029 47.0638C46.5468 47.0638 46.9536 47.1417 47.3234 47.2974C47.6931 47.4532 48.0104 47.6712 48.2751 47.9515C48.5398 48.2317 48.7463 48.5704 48.8941 48.9675C49.0422 49.3646 49.1159 49.8045 49.1159 50.2871ZM47.341 50.2871C47.341 49.75 47.2339 49.3277 47.0198 49.0201C46.8056 48.7126 46.5002 48.5587 46.1029 48.5587C45.7061 48.5587 45.3984 48.7126 45.1803 49.0201C44.9623 49.3277 44.8532 49.75 44.8532 50.2871C44.8532 50.8244 44.9623 51.2506 45.1803 51.5659C45.3984 51.8812 45.7061 52.0389 46.1029 52.0389C46.5002 52.0389 46.8056 51.8812 47.0198 51.5659C47.2339 51.2506 47.341 50.8244 47.341 50.2871ZM50.4592 47.4376C50.7551 47.352 51.1364 47.2722 51.6035 47.1982C52.0708 47.1242 52.5612 47.0872 53.0749 47.0872C53.5967 47.0872 54.0307 47.1554 54.3771 47.2916C54.7238 47.4278 54.9982 47.6205 55.2007 47.8696C55.403 48.1189 55.547 48.4147 55.6327 48.7573C55.7184 49.0999 55.7612 49.4813 55.7612 49.9017V53.3702H54.021V50.1119C54.021 49.5514 53.947 49.1544 53.7991 48.9208C53.6513 48.6872 53.3749 48.5704 52.97 48.5704C52.8455 48.5704 52.7131 48.5762 52.5729 48.5879C52.4329 48.5996 52.3081 48.6132 52.1991 48.6289V53.3702H50.4592V47.4376ZM59.1012 52.1207C59.4204 52.1207 59.6461 52.0895 59.7785 52.0273C59.9108 51.965 59.977 51.8442 59.977 51.6653C59.977 51.5251 59.8913 51.4024 59.7203 51.2974C59.5488 51.1922 59.2881 51.0735 58.9377 50.941C58.6651 50.8399 58.418 50.7349 58.1962 50.6258C57.9742 50.5169 57.7854 50.3865 57.6297 50.2346C57.474 50.0828 57.3533 49.9017 57.2677 49.6915C57.1819 49.4813 57.1391 49.2283 57.1391 48.9325C57.1391 48.3562 57.3533 47.9008 57.7814 47.566C58.2096 47.2313 58.7974 47.0638 59.545 47.0638C59.9187 47.0638 60.2767 47.0969 60.6193 47.1632C60.9619 47.2294 61.2345 47.3013 61.4368 47.3792C61.5142 47.93 61.4482 48.4009 61.1333 48.7339C60.9306 48.6638 60.711 48.6016 60.4735 48.547C60.236 48.4926 59.9692 48.4654 59.6735 48.4654C59.1283 48.4654 58.856 48.6171 58.856 48.9208C58.856 48.9908 58.8676 49.0532 58.891 49.1076C58.9143 49.1621 58.961 49.2148 59.0312 49.2653C59.1012 49.3159 59.1964 49.3703 59.3171 49.4289C59.4378 49.4892 59.5916 49.5534 59.7785 49.6234C60.1601 49.7655 60.4753 49.9037 60.7246 50.0419C60.9735 50.1781 61.1702 50.328 61.3142 50.4857C61.4582 50.6453 61.5594 50.8225 61.618 51.0171C61.6763 51.2116 61.7056 51.4356 61.7056 51.6925C61.7056 52.2979 61.4778 52.7572 61.0224 53.0686C60.5669 53.378 59.9224 53.5338 59.0895 53.5338C58.5444 53.5338 58.0908 53.4871 57.729 53.3936C57.3669 53.3002 57.1158 53.2224 56.9758 53.16C56.768 52.6454 56.8659 52.1746 57.2677 51.747C57.5635 51.8637 57.867 51.9552 58.1784 52.0214C58.4898 52.0876 58.7974 52.1207 59.1012 52.1207ZM62.9436 45.6975L64.6835 45.4172V47.2274C65.3803 47.2274 66.0771 47.2274 66.7739 47.2274C67.0171 47.7101 67.0536 48.1927 66.7739 48.6755H64.6835V50.836C64.6835 51.2019 64.7478 51.494 64.8761 51.712C65.0047 51.93 65.2637 52.0389 65.6529 52.0389C65.8398 52.0389 66.0324 52.0214 66.2309 51.9865C66.4294 51.9513 66.6104 51.9027 66.7739 51.8404C67.0811 52.251 67.1914 52.6975 67.0193 53.1952C66.8089 53.2807 66.5753 53.3547 66.3185 53.417C66.0617 53.4793 65.7462 53.5104 65.3724 53.5104C64.8974 53.5104 64.5045 53.4463 64.1931 53.3177C63.8817 53.1893 63.6325 53.0101 63.4456 52.7805C63.2587 52.5508 63.1283 52.2725 63.0544 51.9454C62.9805 51.6185 62.9436 51.2565 62.9436 50.8594V45.6975ZM71.8891 48.769C71.7335 48.73 71.5506 48.6892 71.3404 48.6463C71.1301 48.6035 70.9042 48.5821 70.6629 48.5821C70.5539 48.5821 70.4236 48.5918 70.2718 48.6114C70.1198 48.6307 70.0051 48.6522 69.9274 48.6755V53.3702H68.1871V47.5544C68.4984 47.4453 68.8665 47.3423 69.2908 47.245C69.7152 47.1475 70.188 47.0989 70.7098 47.0989C70.8031 47.0989 70.916 47.1048 71.0483 47.1164C71.1807 47.1282 71.313 47.1437 71.4454 47.1632C71.5778 47.1826 71.7101 47.206 71.8425 47.2332C71.9749 47.2604 72.0876 47.2936 72.1813 47.3325C72.2709 47.8945 72.1916 48.3814 71.8891 48.769ZM78.3592 53.16C78.0633 53.2457 77.6819 53.3256 77.2145 53.3995C76.7475 53.4735 76.2571 53.5104 75.7431 53.5104C75.2215 53.5104 74.7876 53.4404 74.4409 53.3002C74.0946 53.16 73.8201 52.9636 73.6177 52.7105C73.4152 52.4574 73.2711 52.1557 73.1857 51.8054C73.1 51.455 73.0571 51.0696 73.0571 50.6491V47.2274H74.7971V50.439C74.7971 50.9996 74.8711 51.4044 75.0192 51.6535C75.1671 51.9028 75.4434 52.0273 75.8481 52.0273C75.9729 52.0273 76.1052 52.0214 76.2454 52.0098C76.3854 51.9981 76.5102 51.9844 76.6192 51.9688V47.2274H78.3592V53.16ZM79.702 50.2989C79.702 49.855 79.7742 49.4365 79.9182 49.0434C80.0623 48.6502 80.2705 48.3076 80.5429 48.0157C80.8155 47.7238 81.1464 47.492 81.5356 47.3208C81.925 47.1495 82.3686 47.0638 82.867 47.0638C83.1939 47.0638 83.4936 47.093 83.7663 47.1516C84.0388 47.2099 84.3035 47.2936 84.5605 47.4026C84.6984 47.9305 84.5832 48.3952 84.1983 48.7923C84.0348 48.73 83.8558 48.6755 83.661 48.6289C83.4666 48.5821 83.2485 48.5587 83.0071 48.5587C82.4934 48.5587 82.1098 48.7184 81.8567 49.0376C81.6037 49.3568 81.4773 49.7772 81.4773 50.2989C81.4773 50.8516 81.5961 51.2799 81.8334 51.5834C82.0709 51.8871 82.4855 52.0389 83.0773 52.0389C83.2875 52.0389 83.5132 52.0196 83.7546 51.9806C83.996 51.9416 84.2179 51.8794 84.4202 51.7937C84.7566 52.2687 84.8518 52.7435 84.6653 53.2185C84.4631 53.3041 84.21 53.378 83.9065 53.4404C83.6027 53.5027 83.2681 53.5338 82.9021 53.5338C82.3414 53.5338 81.8587 53.4501 81.4539 53.2827C81.049 53.1153 80.7162 52.8876 80.4553 52.5995C80.1946 52.3115 80.0039 51.9708 79.8832 51.5776C79.7625 51.1844 79.702 50.7582 79.702 50.2989ZM91.2873 50.2871C91.2873 50.7698 91.2171 51.2116 91.0771 51.6126C90.9369 52.0136 90.7345 52.3562 90.4698 52.6404C90.2051 52.9246 89.8877 53.1445 89.5181 53.3002C89.148 53.456 88.7337 53.5338 88.2742 53.5338C87.8226 53.5338 87.4119 53.456 87.0422 53.3002C86.6722 53.1445 86.3549 52.9246 86.0902 52.6404C85.8255 52.3562 85.6193 52.0136 85.4712 51.6126C85.3235 51.2116 85.2494 50.7698 85.2494 50.2871C85.2494 49.8045 85.3253 49.3646 85.4772 48.9675C85.629 48.5704 85.8393 48.2317 86.1078 47.9515C86.3764 47.6712 86.6956 47.4532 87.0655 47.2974C87.4352 47.1417 87.8383 47.0638 88.2742 47.0638C88.7179 47.0638 89.1248 47.1417 89.4947 47.2974C89.8645 47.4532 90.1818 47.6712 90.4464 47.9515C90.7111 48.2317 90.9174 48.5704 91.0654 48.9675C91.2133 49.3646 91.2873 49.8045 91.2873 50.2871ZM89.5122 50.2871C89.5122 49.75 89.405 49.3277 89.191 49.0201C88.9769 48.7126 88.6713 48.5587 88.2742 48.5587C87.8771 48.5587 87.5695 48.7126 87.3517 49.0201C87.1337 49.3277 87.0246 49.75 87.0246 50.2871C87.0246 50.8244 87.1337 51.2506 87.3517 51.5659C87.5695 51.8812 87.8771 52.0389 88.2742 52.0389C88.6713 52.0389 88.9769 51.8812 89.191 51.5659C89.405 51.2506 89.5122 50.8244 89.5122 50.2871ZM101.111 52.1207C101.431 52.1207 101.657 52.0895 101.789 52.0273C101.921 51.9651 101.987 51.8442 101.987 51.6653C101.987 51.5251 101.901 51.4024 101.73 51.2974C101.559 51.1923 101.298 51.0735 100.948 50.941C100.675 50.8399 100.428 50.7347 100.206 50.6258C99.9845 50.5169 99.7957 50.3863 99.64 50.2346C99.4843 50.0828 99.3635 49.9017 99.2779 49.6915C99.1922 49.4814 99.1493 49.2283 99.1493 48.9325C99.1493 48.3562 99.3635 47.9008 99.7918 47.566C100.22 47.2313 100.808 47.0638 101.555 47.0638C101.929 47.0638 102.287 47.097 102.63 47.1632C102.972 47.2294 103.245 47.3013 103.447 47.3792C103.562 47.8308 103.465 48.2823 103.144 48.7339C102.941 48.6638 102.721 48.6015 102.484 48.547C102.246 48.4926 101.98 48.4654 101.684 48.4654C101.139 48.4654 100.866 48.6171 100.866 48.9208C100.866 48.9908 100.878 49.0532 100.901 49.1076C100.925 49.1621 100.971 49.2148 101.041 49.2653C101.111 49.3159 101.207 49.3703 101.327 49.4289C101.448 49.4892 101.602 49.5534 101.789 49.6234C102.17 49.7655 102.485 49.9037 102.735 50.0419C102.984 50.1781 103.18 50.328 103.324 50.4857C103.468 50.6453 103.57 50.8225 103.628 51.0171C103.687 51.2116 103.716 51.4356 103.716 51.6925C103.716 52.2979 103.488 52.7572 103.033 53.0686C102.577 53.378 101.933 53.5338 101.1 53.5338C100.555 53.5338 100.101 53.4871 99.7393 53.3936C99.3772 53.3002 99.126 53.2224 98.986 53.16C98.7976 52.689 98.8999 52.218 99.2779 51.747C99.5738 51.8637 99.8773 51.9552 100.189 52.0214C100.5 52.0876 100.808 52.1207 101.111 52.1207Z" fill="#E4A123"/>
<path d="M94.1469 51.3065L98.1629 49.6179C97.8452 46.4857 93.4173 46.1531 92.4563 49.2944C91.3415 52.9379 95.8657 55.4965 98.1774 52.08C97.8596 51.6417 97.4607 51.3683 96.9386 51.3453C96.7208 52.1048 94.8105 52.6292 94.1469 51.3065ZM94.0809 50.0896C93.9381 48.7445 95.6924 48.2954 96.3249 49.1532L94.0809 50.0896Z" fill="#E4A123"/>
</g>
<defs>
<clipPath id="clip0_64_11384">
<rect width="104" height="56" fill="white"/>
</clipPath>
</defs>
</svg>
